<svg width="45" height="50" xmlns="http://www.w3.org/2000/svg"><g><path d="M43.556 37.235c.347-.6.562-1.275.562-1.882v-21.06c0-.606-.215-1.282-.561-1.881L22.059 24.823l21.497 12.412z" fill="#00599C"/><path d="M23.97 49.192l18.237-10.53c.526-.303 1.003-.827 1.35-1.427L22.058 24.823.56 37.235c.346.6.824 1.124 1.35 1.427l18.238 10.53c1.05.606 2.77.606 3.82 0z" fill="#004482"/><path d="M43.557 12.412c-.347-.6-.824-1.124-1.35-1.427L23.97.455c-1.05-.607-2.77-.607-3.82 0L1.91 10.985C.86 11.59 0 13.08 0 14.294v21.06c0 .606.215 1.281.561 1.881L22.06 24.823l21.498-12.411z" fill="#659AD2"/><path d="M22.059 39.53c-8.109 0-14.706-6.598-14.706-14.707 0-8.108 6.597-14.705 14.706-14.705a14.759 14.759 0 0 1 12.735 7.348l-6.364 3.683a7.384 7.384 0 0 0-6.371-3.679c-4.055 0-7.353 3.299-7.353 7.353 0 4.055 3.298 7.353 7.353 7.353a7.384 7.384 0 0 0 6.371-3.678l6.364 3.682a14.759 14.759 0 0 1-12.735 7.35z" fill="#FFF"/><path d="M36.765 24.006H35.13v-1.634h-1.634v1.634h-1.634v1.634h1.634v1.634h1.634V25.64h1.634v-1.634zm6.127 0h-1.634v-1.634h-1.634v1.634H37.99v1.634h1.634v1.634h1.634V25.64h1.634v-1.634z" fill="#FFF"/></g></svg>