<svg width="44" height="50" xmlns="http://www.w3.org/2000/svg"><g><path fill="#264DE4" d="M43.94 0l-4.004 44.995L21.943 50 3.999 45.002 0 0z"/><path fill="#2965F1" d="M36.484 42.174L39.9 3.788h-17.93v42.424z"/><path d="M9.078 20.535l.497 5.53H21.97v-5.53H9.078zM21.97 9.343H8.08l.504 5.53H21.97v-5.53zm0 31.307v-5.754l-.025.007-6.168-1.663-.395-4.41h-5.56l.776 8.682 11.346 3.145.026-.007z" fill="#EBEBEB"/><path fill="#FFF" d="M28.797 26.066l-.644 7.172-6.183 1.665v5.754l11.366-3.142.083-.935 1.303-14.559.136-1.485 1-11.193H21.97v5.53h7.812l-.504 5.663H21.97v5.53z"/></g></svg>