<svg width="50" height="50" xmlns="http://www.w3.org/2000/svg" xmlns:xlink="http://www.w3.org/1999/xlink"><defs><linearGradient x1="50%" y1="0%" x2="50%" y2="100%" id="a"><stop stop-color="#FFF" offset="0%"/><stop stop-color="#E9E9E9" offset="13.728%"/><stop stop-color="#E4E4E4" offset="25.578%"/><stop stop-color="#DFDFDF" offset="37.052%"/><stop stop-color="#DCDCDC" offset="47.264%"/><stop stop-color="#DBDBDB" offset="57.143%"/><stop stop-color="#DADADA" offset="66.647%"/><stop stop-color="#DADADA" offset="76.016%"/><stop stop-color="#D9D9D9" offset="85.939%"/><stop stop-color="#D8D8D8" offset="100%"/></linearGradient><rect id="b" width="38" height="26.583" rx="1.321"/><linearGradient x1="0%" y1="50%" y2="50%" id="c"><stop stop-color="#1E51EE" offset="0%"/><stop stop-color="#19E6FF" offset="100%"/></linearGradient><path d="M.944.66l16.9 11.823a1.987 1.987 0 0 0 2.312 0L37.056.66a.6.6 0 0 1 .944.492v23.67c0 .612-.057.834-.165 1.058-.108.224-.265.4-.467.52-.2.12-.4.183-.95.183H1.582c-.55 0-.75-.063-.951-.183a1.193 1.193 0 0 1-.467-.52C.057 25.656 0 25.434 0 24.822V1.152A.6.6 0 0 1 .944.66z" id="d"/><linearGradient x1="50%" y1="0%" x2="50%" y2="100%" id="e"><stop stop-color="#FFF" offset="0%"/><stop stop-color="#FFF" stop-opacity="0" offset="100%"/></linearGradient><linearGradient x1="44.531%" y1="-7.599%" x2="44.531%" y2="39.519%" id="f"><stop stop-color="#FFF" stop-opacity="0" offset="0%"/><stop stop-color="#FFF" stop-opacity="0" offset="32.214%"/><stop stop-color="#FFF" offset="100%"/></linearGradient></defs><g><path d="M47 50c1.764 0 3-1.235 3-3V3c0-1.765-1.235-3-3-3H3C1.235 0 0 1.235 0 3v44c0 1.765 1.235 3 3 3h44z" fill="#565B7C" fill-rule="nonzero"/><g transform="translate(6 12)"><use fill="url(#a)" style="mix-blend-mode:screen" xlink:href="#b"/><rect stroke="#FFF" stroke-width="1.44" x="-.72" y="-.72" width="39.44" height="28.023" rx="1.321"/></g><g style="mix-blend-mode:darken" transform="translate(6 12)"><use fill="url(#c)" style="mix-blend-mode:overlay" xlink:href="#d"/><path stroke="#FFF" stroke-width="1.2" d="M1.288.169l16.9 11.823c.5.35 1.124.35 1.624 0L36.712.169a1.2 1.2 0 0 1 1.888.983v23.67c0 .64-.057.971-.224 1.318a1.793 1.793 0 0 1-.7.775c-.334.199-.658.268-1.259.268H1.583c-.601 0-.925-.07-1.258-.268a1.793 1.793 0 0 1-.7-.775c-.168-.347-.225-.677-.225-1.318V1.152A1.2 1.2 0 0 1 1.288.169z"/></g><g opacity=".232"><path d="M6.56 28.066L0 23.867V0h19.08L38 12.11v15.956H6.56z" fill="url(#e)" transform="translate(6 12)"/><path d="M1.946 0L38 23.52v3.063H0V0h1.946z" fill="url(#e)" transform="translate(6 12)"/><path d="M0 9.725l24.902 16.858H0V9.725z" fill="url(#f)" transform="translate(6 12)"/></g></g></svg>