<svg width="50" height="50" viewBox="0 0 50 50" xmlns="http://www.w3.org/2000/svg" xmlns:xlink="http://www.w3.org/1999/xlink"><defs><linearGradient x1="50%" y1="0%" x2="50%" y2="100%" id="linearGradient-1"><stop stop-color="#FFF" offset="0%"/><stop stop-color="#E9E9E9" offset="13.7%"/><stop stop-color="#E4E4E4" offset="25.6%"/><stop stop-color="#DFDFDF" offset="37.1%"/><stop stop-color="#DCDCDC" offset="47.3%"/><stop stop-color="#DBDBDB" offset="57.1%"/><stop stop-color="#DADADA" offset="66.6%"/><stop stop-color="#DADADA" offset="76%"/><stop stop-color="#D9D9D9" offset="85.9%"/><stop stop-color="#D8D8D8" offset="100%"/></linearGradient><rect id="path-2" width="38" height="26.6" rx="1.3"/><linearGradient x1="0%" y1="50%" y2="50%" id="linearGradient-3"><stop stop-color="#1E51EE" offset="0%"/><stop stop-color="#19E6FF" offset="100%"/></linearGradient><path d="M1 .7l16.8 11.8a2 2 0 0 0 2.4 0L37 .7a.6.6 0 0 1 .9.5v23.6c0 .6 0 .9-.2 1 0 .3-.2.5-.4.6-.2.1-.4.2-1 .2H1.6c-.6 0-.8 0-1-.2l-.4-.5-.2-1V1.1a.6.6 0 0 1 1-.5z" id="path-4"/><linearGradient x1="50%" y1="0%" x2="50%" y2="100%" id="linearGradient-5"><stop stop-color="#FFF" offset="0%"/><stop stop-color="#FFF" stop-opacity="0" offset="100%"/></linearGradient><linearGradient x1="44.5%" y1="-7.6%" x2="44.5%" y2="39.5%" id="linearGradient-6"><stop stop-color="#FFF" stop-opacity="0" offset="0%"/><stop stop-color="#FFF" stop-opacity="0" offset="32.2%"/><stop stop-color="#FFF" offset="100%"/></linearGradient></defs><g id="Page-1" fill="none" fill-rule="evenodd"><g id="Desktop-HD" transform="translate(-30 -15)"><g id="Email" transform="translate(30 15)"><path d="M47 50c1.8 0 3-1.2 3-3V3c0-1.8-1.2-3-3-3H3C1.2 0 0 1.2 0 3v44c0 1.8 1.2 3 3 3h44z" id="bg" fill="#EFEFEF" fill-rule="nonzero"/><g id="Mail-Icon" transform="translate(6 12)"><g id="Mail-"><g id="Darkens-Bkgrd"><use fill="url(#linearGradient-1)" style="mix-blend-mode:screen" xlink:href="#path-2"/><rect stroke="#FFF" stroke-width="1.4" x="-.7" y="-.7" width="39.4" height="28" rx="1.3"/></g><g id="Combined-Shape" style="mix-blend-mode:darken"><use fill="url(#linearGradient-3)" style="mix-blend-mode:overlay" xlink:href="#path-4"/><path stroke="#FFF" stroke-width="1.2" d="M1.3.2L18.2 12c.5.3 1.1.3 1.6 0L36.8.2a1.2 1.2 0 0 1 1.8 1v23.6c0 .7 0 1-.2 1.3-.2.4-.4.6-.7.8-.4.2-.7.3-1.3.3H1.6c-.6 0-1 0-1.3-.3-.3-.2-.5-.4-.7-.8-.1-.3-.2-.6-.2-1.3V1.2a1.2 1.2 0 0 1 1.9-1z"/></g></g><g id="Mask" opacity=".2"><path d="M6.6 28L0 24V0h19l19 12.1v16H6.6z" id="3" fill="url(#linearGradient-5)"/><path d="M2 0l36 23.5v3H0V0h2z" id="2" fill="url(#linearGradient-5)"/><path d="M0 9.7l24.9 16.9H0V9.7z" id="1" fill="url(#linearGradient-6)"/></g></g></g></g></g></svg>