<svg width="50" height="50" xmlns="http://www.w3.org/2000/svg"><path d="M47.03 49.825l-13.698.164a6.31 6.31 0 0 1-.796-.036 2.862 2.862 0 0 1-.638-.163.884.884 0 0 1-.52-.474c-.108-.23-.164-.526-.164-.898v-7.767c0-2.106-.566-3.646-1.694-4.62 1.24-.133 2.352-.327 3.337-.587.99-.26 2.005-.683 3.061-1.27 1.051-.586 1.934-1.305 2.638-2.162s1.28-1.994 1.725-3.417c.443-1.423.668-3.055.668-4.896 0-2.626-.857-4.86-2.571-6.701.8-1.974.714-4.187-.26-6.635-.608-.194-1.49-.077-2.638.357-1.148.433-2.148.913-2.995 1.433l-1.24.78a23.045 23.045 0 0 0-6.25-.846c-2.148 0-4.23.28-6.25.846-.347-.24-.806-.53-1.383-.877-.576-.347-1.48-.765-2.72-1.254-1.239-.49-2.168-.638-2.8-.44-.954 2.454-1.03 4.667-.23 6.636-1.714 1.846-2.571 4.08-2.571 6.701 0 1.846.224 3.473.668 4.88.444 1.413 1.015 2.55 1.71 3.418.693.867 1.566 1.596 2.622 2.182 1.05.587 2.071 1.01 3.061 1.27.99.26 2.102.454 3.337.587-.868.78-1.398 1.897-1.597 3.35a6.768 6.768 0 0 1-1.464.49 9.305 9.305 0 0 1-1.858.163c-.714 0-1.428-.235-2.132-.699-.704-.464-1.306-1.142-1.806-2.035A5.246 5.246 0 0 0 10 35.612c-.638-.433-1.179-.693-1.612-.78l-.653-.097c-.454 0-.77.051-.944.148-.174.097-.23.224-.163.377.066.153.163.306.295.454.133.153.27.28.424.388l.23.163c.48.214.949.627 1.418 1.24.464.606.806 1.162 1.025 1.657l.327.75c.28.826.76 1.494 1.434 1.999.673.51 1.403.836 2.183.979.78.143 1.536.22 2.26.23.73.01 1.332-.031 1.807-.113l.75-.132c0 .826.005 1.943.015 3.35l.015 2.213c0 .48-.117.842-.357 1.092-.24.25-.48.387-.714.423-.24.036-.597.051-1.077.046l-13.7-.172a3 3 0 0 1-2.963-3V3a3 3 0 0 1 3-3h43.995a3 3 0 0 1 3 3v43.826a3 3 0 0 1-2.964 3z" fill="#333"/></svg>