<svg width="37" height="50" xmlns="http://www.w3.org/2000/svg"><g><path d="M18.36 27.067l-1.054-1.534a24.655 24.655 0 0 1-1.007-1.623c-.59-1.029-1.3-2.335-1.625-3.633-.594-2.377.871-3.85 2.165-5.407.195-.238.425-.46.636-.683 1.354-1.428 3.208-3.139 4.653-4.546 1.468-1.439 2.352-3.028 2.523-5.355C24.744 3.07 24.51.469 23.652 0c.255 1.824.315 3.062-.423 4.895-.854 2.128-2.244 3.4-3.857 4.659a80.728 80.728 0 0 0-4.614 3.955c-.736.7-1.98 1.95-2.496 3.171-.763 1.805-.007 2.987.81 4.248.389.602.784 1.115 1.2 1.654.484.629.914 1.062 1.303 1.554.408.521.913 1 1.36 1.496.278.306 1.15 1.242 1.424 1.435z" fill="#ED1E24"/><path d="M33.999 42.715c.516.834.006 1.188-.7 1.52-3.138 1.47-13.75 1.746-17.064 1.794-3.378.05-6.783-.085-10.046-.658-.529-.09-2.854-.462-2.962-1.08-.071-.389.34-.682.552-.814.75-.467 2.126-.79 3.072-.962.274-.048.935-.12 1.14-.203-1.581-.234-6.591.614-7.687 2.174-.69.982.467 1.438 1.237 1.69 2.888.944 8.897 1.136 12.067 1.182 4.737.064 16.138.017 20.316-2.859.244-.166.723-.516.772-.856.06-.422-.44-.82-.697-.928" fill="#3C8ACE"/><path d="M20.328 28.999c.503-.174 1.989-1.393 2.39-1.803.524-.546 1.419-1.556 1.496-2.723.068-1.06-.662-2.44-1.107-3.117-1.41-2.14-2.536-3.366-.628-5.74.638-.79 1.33-1.409 2.138-2.078.969-.801 2.553-1.896 3.688-2.61l1.293-.832c-.684.09-2.497.817-3.212 1.084-.96.362-2.068.914-2.908 1.398-2.88 1.668-5.713 4.278-4.554 7.886.784 2.44 3.067 3.903 2.903 5.732-.1 1.12-1.175 2.242-1.5 2.803" fill="#ED1E24"/><path d="M26.341 40.935c-.884-.335-1.55-.724-2.342-1.195-.459-.275-.282-.252-.87-.106-2.396.59-6.281.598-8.797.522-.647-.02-2.467-.076-2.834-.687-.234-.384.084-.665.209-.884-1.65.333-3.328 1.705-1.035 2.847 2.58 1.283 8.003 1.296 10.827.793.804-.143 4.457-.977 4.842-1.29m.763-5.388c-.682-.172-1.294-.598-1.712-.965-.365-.313-.24-.236-1.024-.104-2.821.47-11.218 1.293-13.622.3-.312-.129-.67-.322-.693-.69-.026-.436.343-.671.499-.91-1.934.24-3.789 2.107-1.2 2.998 2.92 1.002 9.216 1.035 12.32.644 1.023-.132 4.65-.838 5.432-1.273m1.942-6.347c-.368.016-.86.13-1.23.19-.43.064-.841.127-1.271.184-2.585.362-5.45.655-8.037.806-2.02.119-9.64.371-10.776-.69-.084-.478.462-.778.797-.962 1.306-.701 2.696-.938 3.982-1.34-1.778-.168-6.247 1.112-7.863 2.124-1.749 1.091 1.165 1.526 2.255 1.678 6.377.89 12.341.413 18.649-.484 1.028-.146 1.248-.087 1.949-.533.483-.309 1.117-.633 1.545-.973M7.004 48.436c1.78.75 5.659 1.205 7.671 1.369 2.83.232 5.936.177 8.764-.023 3.662-.26 8.005-.68 11.227-2.318.766-.391 2.147-1.326 2.279-2.224-.23.105-.43.315-.645.46-5.682 3.919-18.669 3.545-25.373 3.066l-3.923-.33m23.33-20.764c1.391-.435 2.975-.146 3.857.64.953.85.964 2.464.277 3.714-.92 1.668-2.85 3.155-4.449 4.16-.274.173-.539.303-.777.48 1.031-.11 3.476-1.216 4.406-1.79 1.186-.735 2.511-1.807 3.058-3.196.78-1.971-.354-3.476-1.564-4.188a4.526 4.526 0 0 0-2.511-.61c-.748.03-1.96.328-2.298.79" fill="#3C8ACE"/></g></svg>