<svg width="46" height="50" xmlns="http://www.w3.org/2000/svg"><g fill-rule="nonzero" fill="none"><path d="M42.398 24.594a4.65 4.65 0 0 0-5.138-4.624l6.386-18.834H16.507l6.377 18.818a4.65 4.65 0 0 0-1.694 9.07 20.308 20.308 0 0 1-3.656 4.602c-1.926 1.817-4.13 3.195-6.515 4.044-2.839-1.458-4.18-4.701-2.97-7.545.137-.321.276-.647.41-.97a4.65 4.65 0 1 0-3.73-.72c-1.15 2.62-2.842 5.361-3.369 8.54-.631 3.809-.002 7.852 3.292 10.135 7.672 5.317 16-3.296 24.781-5.462 3.182-.785 6.675-.658 9.48-2.282 2.105-1.22 3.493-3.24 3.887-5.51.389-2.24-.179-4.472-1.483-6.282a4.63 4.63 0 0 0 1.081-2.98zm-15.147.017v-.017a4.647 4.647 0 0 0-2.24-3.978l5.075-10.263 5.084 10.372a4.644 4.644 0 0 0-2.071 3.87l.003.1-5.851-.084z" fill="#99425B"/><path d="M43.533 24.594a5.793 5.793 0 0 0-4.715-5.684L45.23 0H14.923l6.422 18.948a5.794 5.794 0 0 0-4.528 5.646 5.785 5.785 0 0 0 2.735 4.913 19.383 19.383 0 0 1-2.797 3.293c-1.7 1.604-3.595 2.82-5.638 3.621-2.057-1.292-2.926-3.729-2.023-5.852l.07-.166c.045-.104.09-.208.133-.312a5.794 5.794 0 0 0 3.886-5.463 5.792 5.792 0 0 0-5.785-5.785 5.791 5.791 0 0 0-5.785 5.785c0 1.61.662 3.068 1.727 4.117-.194.412-.397.83-.605 1.26-.974 2-2.078 4.266-2.495 6.784-.83 5 .508 8.997 3.765 11.254 1.977 1.37 3.984 1.909 6.004 1.909 3.804 0 7.651-1.911 11.415-3.78 2.71-1.347 5.513-2.739 8.281-3.421 1.03-.254 2.09-.407 3.212-.569 2.225-.321 4.526-.653 6.564-1.833 2.363-1.369 3.98-3.664 4.437-6.298.393-2.26-.08-4.525-1.232-6.446a5.75 5.75 0 0 0 .847-3.01zm-2.27 0a3.518 3.518 0 0 1-3.515 3.514 3.518 3.518 0 0 1-3.514-3.514 3.518 3.518 0 0 1 3.514-3.514 3.518 3.518 0 0 1 3.514 3.514zm.799-22.323L36.4 18.969a5.715 5.715 0 0 0-.717.223L30.09 7.782l-5.61 11.342a5.714 5.714 0 0 0-.747-.203l-5.642-16.65h23.97zm-19.46 18.81a3.518 3.518 0 0 1 3.514 3.513 3.518 3.518 0 0 1-3.514 3.514 3.518 3.518 0 0 1-3.514-3.514 3.518 3.518 0 0 1 3.514-3.514zm-15.204.033a3.518 3.518 0 0 1 3.514 3.514 3.518 3.518 0 0 1-3.514 3.514 3.518 3.518 0 0 1-3.514-3.514 3.518 3.518 0 0 1 3.514-3.514zM41.68 33.663c-.342 1.97-1.559 3.69-3.338 4.72-1.659.961-3.646 1.248-5.75 1.551-1.127.163-2.293.33-3.432.612-3.01.742-5.927 2.19-8.748 3.592C14.77 46.94 9.895 49.362 5.3 46.177c-3.366-2.334-3.211-6.65-2.819-9.017.364-2.191 1.346-4.21 2.297-6.162.164-.338.324-.669.48-.997.472.188.973.316 1.496.375-.968 3.193.554 6.664 3.747 8.304l.437.225.463-.165c2.524-.899 4.85-2.342 6.913-4.288a21.547 21.547 0 0 0 3.423-4.138 5.792 5.792 0 0 0 6.651-5.72 5.772 5.772 0 0 0-1.942-4.319l3.636-7.352 3.673 7.493a5.768 5.768 0 0 0-1.79 4.178 5.791 5.791 0 0 0 5.784 5.785 5.75 5.75 0 0 0 3.3-1.036c.65 1.33.892 2.828.633 4.32z" fill="#FFF"/></g></svg>