<svg width="50" height="50" xmlns="http://www.w3.org/2000/svg"><g><path fill="#F7DF1E" d="M0 0h50v50H0z"/><path d="M33.56 39.074c1.008 1.645 2.319 2.854 4.638 2.854 1.949 0 3.193-.973 3.193-2.318 0-1.612-1.278-2.183-3.423-3.12l-1.176-.505c-3.393-1.445-5.647-3.255-5.647-7.081 0-3.525 2.687-6.209 6.887-6.209 2.99 0 5.139 1.04 6.688 3.763l-3.662 2.35c-.806-1.445-1.676-2.014-3.026-2.014-1.378 0-2.25.873-2.25 2.014 0 1.41.873 1.981 2.89 2.854l1.176.504c3.995 1.712 6.251 3.458 6.251 7.383 0 4.232-3.325 6.55-7.792 6.55-4.367 0-7.188-2.08-8.569-4.806l3.822-2.22zm-16.612.407c.739 1.31 1.411 2.418 3.027 2.418 1.545 0 2.52-.605 2.52-2.954V22.963h4.701V39.01c0 4.866-2.854 7.082-7.021 7.082-3.765 0-5.946-1.948-7.054-4.294l3.827-2.316z" fill="#000"/></g></svg>