<svg width="50" height="50" xmlns="http://www.w3.org/2000/svg"><path d="M3.846 0h42.308c1.337 0 1.822.14 2.311.4.49.262.873.646 1.134 1.135.262.489.401.974.401 2.31v42.09c0 1.337-.14 1.822-.4 2.31a2.726 2.726 0 0 1-1.135 1.135c-.489.261-.974.4-2.31.4H3.844c-1.336 0-1.821-.139-2.31-.4A2.726 2.726 0 0 1 .4 48.245C.139 47.757 0 47.272 0 45.935V3.844c0-1.336.14-1.821.4-2.31A2.726 2.726 0 0 1 1.536.4C2.024.139 2.509 0 3.845 0zm12.853 39.714V16.898h-6.25v22.816h6.25zm-3.125-25.446a3.652 3.652 0 0 0 3.646-3.66 3.653 3.653 0 0 0-3.646-3.658 3.653 3.653 0 0 0-3.646 3.659 3.653 3.653 0 0 0 3.646 3.659zM41.7 39.714v-14.02c0-10.895-11.675-10.5-14.583-5.135v-3.661h-6.25v22.816h6.25V28.09c0-6.457 8.333-6.986 8.333 0v11.624h6.25z" fill="#0077B5"/></svg>