<svg width="100" height="38" xmlns="http://www.w3.org/2000/svg"><g fill-rule="nonzero" fill="none"><path fill="#3D3D3D" d="M73.597 30.907l2.89-7.305h8.34L80.87 12.52 85.819 0 100 37.65H89.543l-2.424-6.743H73.597z"/><path fill="#5A0FC8" d="M64.676 37.65L79.856 0H69.792L59.408 24.33 52.024 0h-7.736l-7.929 24.33-5.591-11.086-5.06 15.589 5.137 8.817h9.904l7.165-21.819 6.831 21.82z"/><path d="M9.553 24.726h6.199c1.878 0 3.55-.21 5.016-.63l1.603-4.938 4.48-13.804a11.029 11.029 0 0 0-1.168-1.535C23.383 1.273 20.016 0 15.585 0H0v37.65h9.553V24.726zm8.205-16.064c.899.904 1.348 2.114 1.348 3.63 0 1.528-.395 2.74-1.185 3.636-.867.995-2.462 1.492-4.786 1.492H9.553V7.305h3.609c2.166 0 3.698.452 4.596 1.357z" fill="#3D3D3D"/></g></svg>