<svg width="50" height="50" xmlns="http://www.w3.org/2000/svg"><defs><linearGradient x1="12.96%" y1="11.699%" x2="79.639%" y2="78.454%" id="a"><stop stop-color="#387EB8" offset="0%"/><stop stop-color="#366994" offset="100%"/></linearGradient><linearGradient x1="19.128%" y1="20.317%" x2="90.741%" y2="88.773%" id="b"><stop stop-color="#FFE052" offset="0%"/><stop stop-color="#FFC331" offset="100%"/></linearGradient></defs><g><path d="M24.916 0C12.402 0 13.183 5.427 13.183 5.427l.014 5.622H25.14v1.688H8.454S.446 11.83.446 24.456c0 12.627 6.99 12.179 6.99 12.179h4.17v-5.86s-.224-6.989 6.879-6.989h11.844s6.654.108 6.654-6.431V6.543S37.993 0 24.916 0zm-6.585 3.78A2.146 2.146 0 0 1 20.48 5.93a2.146 2.146 0 0 1-2.149 2.149 2.146 2.146 0 0 1-2.148-2.149A2.146 2.146 0 0 1 18.33 3.78z" fill="url(#a)"/><path d="M25.271 49.038c12.515 0 11.733-5.426 11.733-5.426l-.013-5.623H25.049v-1.688h16.684s8.009.908 8.009-11.718c0-12.628-6.99-12.18-6.99-12.18H38.58v5.86s.224 6.99-6.878 6.99H19.859s-6.655-.108-6.655 6.43v10.813s-1.01 6.542 12.067 6.542zm6.585-3.78a2.146 2.146 0 0 1-2.148-2.149 2.146 2.146 0 0 1 2.148-2.148 2.146 2.146 0 0 1 2.149 2.148 2.146 2.146 0 0 1-2.149 2.149z" fill="url(#b)"/></g></svg>