<svg width="50" height="45" xmlns="http://www.w3.org/2000/svg"><path d="M50 22.283c0-3.314-4.148-6.455-10.508-8.403C40.96 7.394 40.308 2.233 37.434.58c-.663-.387-1.437-.57-2.283-.57v2.273c.469 0 .846.092 1.162.266 1.386.795 1.987 3.824 1.518 7.72a31.414 31.414 0 0 1-.52 2.998 49.361 49.361 0 0 0-6.471-1.112 49.74 49.74 0 0 0-4.24-5.099c3.323-3.09 6.441-4.783 8.561-4.783V0c-2.803 0-6.472 1.999-10.181 5.466C21.27 2.02 17.6.041 14.798.041v2.274c2.11 0 5.239 1.683 8.561 4.752a48.161 48.161 0 0 0-4.209 5.09c-2.303.244-4.484.621-6.482 1.121a30.786 30.786 0 0 1-.53-2.957c-.479-3.896.112-6.925 1.488-7.73.306-.184.703-.266 1.172-.266V.051c-.856 0-1.63.184-2.303.571C9.63 2.274 8.989 7.424 10.467 13.89 4.127 15.848 0 18.98 0 22.283c0 3.315 4.148 6.456 10.508 8.404-1.468 6.486-.816 11.646 2.058 13.298.663.388 1.437.571 2.293.571 2.803 0 6.472-1.998 10.182-5.466 3.71 3.447 7.378 5.426 10.181 5.426.856 0 1.63-.184 2.303-.571 2.864-1.653 3.506-6.803 2.029-13.268C45.872 28.729 50 25.587 50 22.283zm-13.27-6.802a45.952 45.952 0 0 1-1.375 4.028 48.275 48.275 0 0 0-1.335-2.447 55.187 55.187 0 0 0-1.468-2.387 45.96 45.96 0 0 1 4.179.806zm-4.667 10.861a54.336 54.336 0 0 1-2.456 3.896 52.995 52.995 0 0 1-4.607.204c-1.539 0-3.078-.071-4.586-.194a56.223 56.223 0 0 1-2.467-3.875 53.135 53.135 0 0 1-2.12-4.06 53.194 53.194 0 0 1 2.11-4.068 54.336 54.336 0 0 1 2.456-3.896A52.994 52.994 0 0 1 25 14.145c1.539 0 3.078.071 4.586.194a56.223 56.223 0 0 1 2.467 3.875 53.135 53.135 0 0 1 2.12 4.06 57.115 57.115 0 0 1-2.11 4.068zm3.292-1.326a43.726 43.726 0 0 1 1.406 4.06 45.713 45.713 0 0 1-4.199.815c.5-.785.999-1.59 1.468-2.417a57.94 57.94 0 0 0 1.325-2.458zM25.02 35.898a42.036 42.036 0 0 1-2.833-3.263c.917.04 1.855.071 2.803.071.958 0 1.906-.02 2.833-.071a39.8 39.8 0 0 1-2.803 3.263zm-7.582-6.007a45.96 45.96 0 0 1-4.179-.805 45.952 45.952 0 0 1 1.376-4.029c.418.816.856 1.632 1.335 2.448.48.816.968 1.611 1.468 2.386zM24.969 8.67c.948.979 1.896 2.07 2.834 3.263A63.05 63.05 0 0 0 25 11.861c-.958 0-1.906.02-2.833.071a39.8 39.8 0 0 1 2.802-3.263zm-7.541 6.006a56.347 56.347 0 0 0-2.793 4.865 43.725 43.725 0 0 1-1.406-4.059 49.466 49.466 0 0 1 4.199-.806zM8.204 27.444c-3.608-1.54-5.941-3.56-5.941-5.16 0-1.602 2.333-3.631 5.941-5.161a31.39 31.39 0 0 1 2.823-1.03 49.002 49.002 0 0 0 2.293 6.21 48.311 48.311 0 0 0-2.262 6.18 30.947 30.947 0 0 1-2.854-1.04zm5.483 14.573c-1.386-.795-1.987-3.824-1.518-7.72.112-.959.295-1.968.52-2.998 1.997.49 4.178.866 6.471 1.111a49.74 49.74 0 0 0 4.24 5.1c-3.323 3.09-6.441 4.782-8.561 4.782-.459-.01-.846-.102-1.152-.275zm24.175-7.771c.479 3.896-.112 6.925-1.488 7.73-.306.184-.703.265-1.172.265-2.11 0-5.239-1.682-8.561-4.752A48.161 48.161 0 0 0 30.85 32.4c2.303-.245 4.484-.622 6.482-1.122.234 1.03.418 2.02.53 2.968zm3.924-6.802a31.39 31.39 0 0 1-2.824 1.03 49.002 49.002 0 0 0-2.293-6.211 48.31 48.31 0 0 0 2.263-6.18 32.31 32.31 0 0 1 2.864 1.04c3.608 1.54 5.941 3.56 5.941 5.16-.01 1.601-2.344 3.63-5.951 5.16zM25 26.814a4.637 4.637 0 1 1 0-9.274 4.637 4.637 0 0 1 0 9.275z" fill="#61DAFB"/></svg>