<svg width="50" height="48" xmlns="http://www.w3.org/2000/svg"><path d="M34.645 33.151c1.845-.191 3.245-1.782 3.181-3.69-.064-1.91-1.654-3.437-3.563-3.437h-.127c-1.973.064-3.5 1.718-3.436 3.69.063.955.445 1.782 1.018 2.355-2.164 4.263-5.472 7.381-10.435 9.99-3.372 1.782-6.872 2.418-10.371 1.973-2.863-.382-5.09-1.655-6.49-3.755-2.036-3.117-2.227-6.49-.51-9.862 1.21-2.418 3.118-4.2 4.327-5.09-.254-.828-.636-2.228-.827-3.246-9.226 6.682-8.271 15.717-5.472 19.98 2.1 3.182 6.363 5.154 11.072 5.154a15.65 15.65 0 0 0 3.817-.445c8.144-1.591 14.316-6.427 17.816-13.617zm11.198-7.89c-4.836-5.663-11.962-8.78-20.106-8.78h-1.018a3.496 3.496 0 0 0-3.118-1.91h-.127c-1.972.064-3.5 1.718-3.436 3.69.064 1.91 1.654 3.437 3.563 3.437h.127a3.584 3.584 0 0 0 3.118-2.164h1.145c4.836 0 9.417 1.4 13.553 4.136 3.181 2.1 5.472 4.836 6.744 8.145 1.082 2.672 1.018 5.28-.127 7.508-1.781 3.372-4.772 5.218-8.717 5.218-2.545 0-4.963-.764-6.235-1.337-.7.637-1.973 1.655-2.863 2.291 2.736 1.273 5.535 1.973 8.208 1.973 6.108 0 10.625-3.373 12.343-6.745 1.845-3.69 1.718-10.054-3.054-15.462zm-32.322 8.971c.063 1.91 1.654 3.436 3.563 3.436h.127c1.972-.063 3.5-1.718 3.436-3.69-.064-1.91-1.655-3.436-3.563-3.436h-.128c-.127 0-.318 0-.445.063-2.609-4.326-3.69-9.035-3.308-14.125.254-3.818 1.526-7.127 3.753-9.863 1.846-2.354 5.409-3.5 7.827-3.563 6.744-.127 9.607 8.272 9.798 11.644.827.191 2.227.637 3.181.955C37 5.345 30.636 0 24.528 0c-5.726 0-11.007 4.136-13.107 10.244-2.927 8.145-1.018 15.971 2.545 22.143-.318.446-.51 1.146-.445 1.846z" fill="#764ABC"/></svg>