<?xml version="1.0" encoding="UTF-8"?>
<svg width="79px" height="43px" viewBox="0 0 79 43" version="1.1" xmlns="http://www.w3.org/2000/svg" xmlns:xlink="http://www.w3.org/1999/xlink">
    <!-- Generator: Sketch 50.2 (55047) - http://www.bohemiancoding.com/sketch -->
    <title>react-router-logo-svg-vector</title>
    <desc>Created with Sketch.</desc>
    <defs></defs>
    <g id="Page-1" stroke="none" stroke-width="1" fill="none" fill-rule="evenodd">
        <g id="Artboard" transform="translate(-738.000000, -559.000000)" fill-rule="nonzero">
            <g id="react-router-logo-svg-vector" transform="translate(738.000000, 559.000000)">
                <path d="M58.4548143,28.0157286 C56.9725429,28.4994786 55.3787786,28.6481357 53.8304714,28.9193429 C53.4090714,28.9930571 52.9643286,28.9273286 52.5389357,28.9863 C49.2362286,29.4445571 47.9883071,30.7674214 47.5217571,34.2842071 C47.2735857,36.1562429 46.7809286,37.9355214 45.7065429,39.5283643 C43.8913286,42.2186286 40.3650214,43.4395214 37.3470357,42.3884786 C34.1165071,41.2634143 32.1593929,38.3188357 32.4204643,34.9755857 C32.6557357,31.9634357 35.0348643,29.30235 38.3759643,28.5289643 C39.94055,28.1668429 41.5638,28.02525 43.1689286,27.87905 C46.1651071,27.6066143 47.4885857,26.2929643 47.9876929,23.34685 C48.2748714,21.6517286 48.0190214,20.0524357 47.6430786,18.45345 C47.0687214,16.0095143 45.2894429,14.8740071 42.3018643,14.65655 C40.67155,14.5376857 39.0129786,14.3011857 37.453,13.8324857 C34.1690286,12.8450214 32.2570643,9.99412143 32.4084857,6.64964286 C32.5411714,3.72103571 34.9261357,0.869521429 37.7908571,0.214692857 C41.1847857,-0.561457143 44.5633571,0.795807143 46.0069286,3.8184 C46.7643429,5.40448571 47.1802143,7.20127143 47.4769143,8.94922143 C48.0079643,12.0833071 49.2531214,13.2992857 52.3789143,13.6389857 C54.4008357,13.8589 56.4608429,14.1095286 58.3887786,14.7127571 C61.3164643,15.6289643 63.0751643,18.3573143 63.07455,21.3894286 C63.0742429,24.3555071 61.2590286,27.10075 58.4548143,28.0157286 Z" id="Shape" fill="#D0011C"></path>
                <path d="M23.9796827,28.4975815 C20.0549416,28.4981958 16.8507704,25.2949461 16.8501561,21.3708194 C16.8495418,17.4463854 20.0527915,14.2419072 23.9769183,14.2412929 C27.9013522,14.2406786 31.1055234,17.4439283 31.1061377,21.368055 C31.106752,25.292489 27.9035023,28.4969672 23.9796827,28.4975815 Z M7.10434035,42.7547917 C3.18297791,42.7449629 -0.00982874543,39.5306559 4.01596507e-10,35.6028433 C0.00982874624,31.6814809 3.22382863,28.4886742 7.15164119,28.4988101 C11.0730036,28.5083317 14.2658103,31.7226388 14.2559815,35.6504513 C14.2461528,39.5718138 11.0321529,42.7646204 7.10434035,42.7547917 Z M71.553884,42.7547917 C67.6223856,42.7772135 64.3945641,39.5973071 64.3721423,35.6802447 C64.3497204,31.7490535 67.5296269,28.5209248 71.4466892,28.4988101 C75.3781876,28.4760812 78.605702,31.6556804 78.6284309,35.57305 C78.6508528,39.5042411 75.4709463,42.7323698 71.553884,42.7547917 Z" id="Shape" fill="#000000"></path>
            </g>
        </g>
    </g>
</svg>