<?xml version="1.0" encoding="UTF-8"?>
<svg width="86px" height="47px" viewBox="0 0 86 47" version="1.1" xmlns="http://www.w3.org/2000/svg" xmlns:xlink="http://www.w3.org/1999/xlink">
    <!-- Generator: Sketch 50.2 (55047) - http://www.bohemiancoding.com/sketch -->
    <title>react-router-logo-svg-vector</title>
    <desc>Created with Sketch.</desc>
    <defs></defs>
    <g id="Page-1" stroke="none" stroke-width="1" fill="none" fill-rule="evenodd">
        <g id="Artboard" transform="translate(-738.000000, -559.000000)" fill-rule="nonzero">
            <g id="react-router-logo-svg-vector" transform="translate(738.000000, 559.000000)">
                <path d="M63.8924714,30.6218429 C62.2723143,31.1505929 60.5302929,31.3130786 58.8379571,31.6095143 C58.3773571,31.6900857 57.8912429,31.6182429 57.4262786,31.6827 C53.8163429,32.1835857 52.4523357,33.6295071 51.9423857,37.4734357 C51.6711286,39.5196143 51.1326429,41.4644071 49.9583143,43.2054214 C47.9742429,46.1459429 44.1199071,47.4804071 40.8211786,46.3315929 C37.2901357,45.1018714 35.1509643,41.8833786 35.4363214,38.2291286 C35.6934786,34.9367786 38.2939214,32.02815 41.9458214,31.1828214 C43.65595,30.7870143 45.4302,30.63225 47.1846429,30.47245 C50.4595357,30.1746714 51.9061286,28.7388214 52.4516643,25.51865 C52.7655571,23.6658429 52.4859071,21.9177786 52.0749929,20.17005 C51.4472071,17.4987714 49.5024143,16.2576357 46.2369214,16.01995 C44.45495,15.8900286 42.6420929,15.6315286 40.937,15.1192286 C37.3475429,14.0399071 35.2577214,10.9238071 35.4232286,7.26821429 C35.5682571,4.06717857 38.1750786,0.950407143 41.3062857,0.234664286 C45.0159286,-0.613685714 48.7087857,0.869835714 50.2866429,4.1736 C51.1145143,5.90722857 51.5690714,7.87115714 51.8933714,9.78170714 C52.4738214,13.2073357 53.8348071,14.5364286 57.2513714,14.9077286 C59.4613786,15.1481 61.7130143,15.4220429 63.8202929,16.0813857 C67.0203214,17.0828214 68.9426214,20.0649714 68.94195,23.3791429 C68.9416143,26.6211357 66.9575429,29.62175 63.8924714,30.6218429 Z" id="Shape" fill="#D0011C"></path>
                <path d="M26.2103508,31.1485194 C21.9205175,31.1491908 18.418284,27.6479644 18.4176125,23.3588026 C18.4169411,19.069305 21.9181675,15.5667357 26.2073293,15.5660643 C30.4968269,15.5653928 33.9990604,19.0666193 33.9997319,23.3557811 C34.0004033,27.6452786 30.4991769,31.1478479 26.2103508,31.1485194 Z M7.76520922,46.7319816 C3.47906888,46.7212386 -0.0107430473,43.2079262 4.38954321e-10,38.9147357 C0.0107430482,34.6285954 3.52371967,31.1387835 7.81691014,31.1498622 C12.1030505,31.1602696 15.5928624,34.6735819 15.5821194,38.9667724 C15.5713763,43.2529127 12.0583997,46.7427246 7.76520922,46.7319816 Z M78.2100592,46.7319816 C73.9128401,46.7564892 70.3847561,43.2807775 70.3602485,38.9993372 C70.3357409,34.7024539 73.8114526,31.1740341 78.0928929,31.1498622 C82.390112,31.1250189 85.9178603,34.6003949 85.9427036,38.8821709 C85.9672112,43.1790543 82.4914995,46.707474 78.2100592,46.7319816 Z" id="Shape" fill="#000000"></path>
            </g>
        </g>
    </g>
</svg>