<svg width="50" height="45" xmlns="http://www.w3.org/2000/svg"><g><path fill="#FFAE00" d="M24.806 44.977L0 16.1 10.746 1.51 24.806 0l14.06 1.51L49.612 16.1z"/><path fill="#EC6C00" d="M24.806 44.977L0 16.137h49.612z"/><path fill="#FFAE00" d="M24.892 44.977l-14.764-28.84h29.527z"/><path fill="#FFEFB4" d="M24.892 0L10.128 16.137h29.527z"/><path d="M10.746 1.545L5.222 8.891 0 16.137h10.143l.603-14.592zm28.12 0l5.524 7.346 5.222 7.246H39.47l-.603-14.592z" fill="#FFAE00"/><path d="M10.831 1.513l-.703 14.624L24.892 0l-14.06 1.513zm28.121 0l.703 14.624L24.892 0l14.06 1.513z" fill="#FED305"/></g></svg>