<svg width="50" height="50" xmlns="http://www.w3.org/2000/svg"><g><path d="M11.93 21.802s-7.77 5.47-8.073 7.553l.583-.12s9.304-6.167 16.68-6.92l.167-.935-9.357.422zm12.197-.781l-6.12 4.34.33.266c.25-.201 10.872-3.445 10.872-3.445l2.24-1.404c-1.503.187-7.322.243-7.322.243zm5.32 5.25c4.345 0 10.86-4.256 10.86-4.256l-2.106-.4c-.105.103-3.396-.116-3.396-.116l-1.563-.434-3.733 4.253-.304.739c.269-.11.241.214.241.214zM11.1 42.393l-.09-.041-.503-.434.593.475zm32.528-2.548l-1.343.378-6.203-.134-3.88-3.017-4.69 1.173-5.425-.47-3.038 3.32-5.7 1.703-2.846-.883-.143-.123 1.277 3.127s2.894 3.103 4.51 3.468c1.616.364 4.535-.027 6.725-.366 2.19-.339 3.936-1.12 4.64-2.398.704-1.277.808-1.642.808-1.642s2.085 2.946 3.884 3.285c1.798.338 7.142-1.486 7.142-1.486s3.26-.887 3.832-2.008c.573-1.12 2.086-4.796 2.086-4.796l-1.636.869z" fill="#CD2445"/><path d="M48.897 17.686a12.434 12.434 0 0 0-.052-.502 6.815 6.815 0 0 0-.054-.355 10.241 10.241 0 0 0-1.486-1.017 19.85 19.85 0 0 0-1.788-.914 35.436 35.436 0 0 0-1.863-.801c-.314-.128-.63-.251-.948-.369-.317-.124-.637-.239-.958-.356.674.112 1.34.265 2.002.435a27 27 0 0 1 1.283.369C42.009 6.272 34.778 1.125 26.883 1.125c-7.895 0-15.125 5.147-18.148 13.051.425-.133.853-.257 1.283-.369.662-.17 1.329-.323 2.002-.434-.322.116-.641.231-.96.355-.315.118-.632.242-.947.369-.63.254-1.253.513-1.863.8-.612.28-1.213.58-1.787.915-.53.305-1.038.64-1.487 1.017a9.264 9.264 0 0 0-.105.857 14.807 14.807 0 0 0 .08 3.039c.093.672.216 1.34.399 1.985.088.322.191.639.31.95a7.965 7.965 0 0 0 .293.67l.043.082.152.075.3.144c.168.076.4.186.592.272l.03-.029-.558-2.125c.119-.033 1.178-.306 3.005-.654a9.074 9.074 0 0 1-1.666-.486 5.6 5.6 0 0 1-.577-.278 1.977 1.977 0 0 1-.508-.386c2.006.654 6.152.358 9.837-.023 3.37-.347 6.75-.573 10.145-.58 3.396.007 6.776.233 10.145.58 3.687.38 7.833.677 9.839.023-.141.16-.323.28-.508.386-.187.104-.38.197-.577.279a9.091 9.091 0 0 1-1.223.39c-.061.015-.124.028-.185.041 2.002.372 3.168.674 3.293.707l-.534 2.025.322-.143.3-.144.152-.075.04-.081c.037-.07.072-.143.106-.216.067-.148.131-.3.19-.454.119-.311.222-.629.31-.95.183-.646.306-1.314.398-1.986.087-.67.132-1.347.126-2.025a12.702 12.702 0 0 0-.045-1.013" fill="#F2F19B"/><path d="M29.16 45.795c-.264.04-.529.072-.795.093-.17.009-.35.026-.514.026l-.06.001c.16-.36.32-.722.478-1.083.292.326.589.647.891.963m.578.588a4.654 4.654 0 0 0 2.972 1.368 16.401 16.401 0 0 1-5.043 1.156c-1.367.092-2.754-.07-4.113-.442.099-.019.198-.034.298-.047.111-.014 2.548-.331 3.647-1.964l.103.002.27-.002c.182 0 .348-.015.522-.022.41-.036.816-.094 1.218-.176l.126.127" fill="#E5C9A3"/><path d="M32.076 21.927a21.73 21.73 0 0 1-2.208 2.49 92.281 92.281 0 0 0-7.476.07c2.075-.862 4.568-1.703 7.268-2.208.789-.15 1.596-.27 2.416-.352m-12.146.93c-.74.52-1.577 1.184-2.388 1.99-1.802.18-3.598.413-5.385.701 2.299-1.057 4.922-2.03 7.773-2.692m25.383 4.29l-.845 5.911-4.048 2.836-10.557-1.2-1.59-5.234a.345.345 0 0 0-.276-.243 6.583 6.583 0 0 0-1.026-.095c-.29 0-.634.032-1.027.095a.348.348 0 0 0-.276.243l-1.55 5.106-10.5 2.336-4.16-2.914-.82-6.635c.181-.102.362-.202.544-.302.258-.055.547-.114.868-.176l.772 6.26a.348.348 0 0 0 .146.242l2.863 2.006c.08.054.18.074.274.053l8.632-1.92a.346.346 0 0 0 .256-.237l1.555-5.12c.416-.107 1.485-.356 2.423-.356.936 0 2.005.25 2.422.357l1.555 5.118c.04.133.155.228.293.244l8.632.98a.35.35 0 0 0 .238-.06l2.863-2.004a.351.351 0 0 0 .143-.236l.765-5.349c.574.111 1.055.212 1.431.293m1.067-3.708l-.743 2.82c-1.52-.336-4.858-.993-9.402-1.436 1.485-.633 2.996-1.427 4.377-2.42 2.704.383 4.69.792 5.768 1.036" fill="#5D6762"/><path d="M28.838 25.328c-.415.337-.854.652-1.31.927l-1.523.919c-.954.116-1.783.352-1.83.366a.35.35 0 0 0-.236.233l-1.55 5.109-8.286 1.843-2.61-1.828-.76-6.151a84.801 84.801 0 0 1 5.846-.854c-.26.31-.506.631-.738.962l-1.418 2.035 2.064-1.376c.031-.021 1.345-.886 3.496-1.938a94.205 94.205 0 0 1 8.855-.247zM15.94 32.257c.589-.318 1.254-.271 2.295-.27a20.874 20.874 0 0 0 .661-.007c1.073-.01 1.965.092 1.95-1.593-.017-1.684-.765-3.045-1.837-3.035-1.073.01-2.11 1.39-2.047 3.073.018.438.082.755.186.983-.935.234-1.193.812-1.208.849zm27.26-5.531l-.747 5.23-2.632 1.842-8.275-.94-1.544-5.085a.352.352 0 0 0-.236-.233 12.742 12.742 0 0 0-2.162-.401l.199-.014c.172-.012 3.026-.362 6.434-1.537 3.774.29 6.856.754 8.963 1.138zm-5.289 4.84c-.01-.04-.236-.717-1.234-.598.116-.251.167-.589.13-1.052-.131-1.68-1.109-3.016-2.18-2.979-1.072.038-1.759 1.431-1.7 3.116.06 1.683.96 1.671 2.03 1.634 1.442-.027 2.233-.47 2.954-.12z" fill="#E4C896"/><path d="M28.838 25.328c-.415.337-.854.652-1.31.927l-1.523.919c-.954.116-1.783.352-1.83.366a.35.35 0 0 0-.236.233l-1.55 5.109-8.286 1.843-2.61-1.828-.76-6.151a84.801 84.801 0 0 1 5.846-.854c-.26.31-.506.631-.738.962l-1.418 2.035 2.064-1.376c.031-.021 1.345-.886 3.496-1.938a94.205 94.205 0 0 1 8.855-.247zM15.94 32.257c.589-.318 1.254-.271 2.295-.27a20.874 20.874 0 0 0 .661-.007c1.073-.01 1.965.092 1.95-1.593-.017-1.684-.765-3.045-1.837-3.035-1.073.01-2.11 1.39-2.047 3.073.018.438.082.755.186.983-.935.234-1.193.812-1.208.849zm27.26-5.531l-.747 5.23-2.632 1.842-8.275-.94-1.544-5.085a.352.352 0 0 0-.236-.233 12.742 12.742 0 0 0-2.162-.401l.199-.014c.172-.012 3.026-.362 6.434-1.537 3.774.29 6.856.754 8.963 1.138zm-5.289 4.84c-.01-.04-.236-.717-1.234-.598.116-.251.167-.589.13-1.052-.131-1.68-1.109-3.016-2.18-2.979-1.072.038-1.759 1.431-1.7 3.116.06 1.683.96 1.671 2.03 1.634 1.442-.027 2.233-.47 2.954-.12z" fill="#C4AF90"/><path d="M46.812 29.026c.127.105.227.375.114 1.637-.14 1.545-.79 4.257-1.192 4.694-.444.086-1.374-.015-1.942-.148.098-.39.126-.576.206-.974l.992-.694a.348.348 0 0 0 .145-.235l.693-4.86c.421.227.855.474.984.58m-36.59 6.344c.05.175.101.351.155.524-.534.157-1.621.307-2.113.221-.408-.41-1.168-3.237-1.335-4.738-.136-1.217-.04-1.48.083-1.582.144-.12.681-.426 1.147-.676l.63 5.106a.34.34 0 0 0 .145.241l1.288.904m20.077.071l-.038.326s-1.144 1.06-2.985 1.298c-1.842.237-3.289-.894-3.289-.894.06.196.147.64.564 1.02a12.649 12.649 0 0 0-2.176-.083c-1.134.059-2.728 1.773-3.849 3.499-.55.174-2.27.72-4.26 1.308-1.857-2.574-2.77-5.205-2.863-5.477-.037-.106-.074-.21-.11-.318l.478.334v.002l1.18.826.395.275a.344.344 0 0 0 .274.055l10.846-2.414a.346.346 0 0 0 .256-.238l1.546-5.09c.267-.037.501-.056.703-.056.2 0 .436.02.703.055l1.591 5.243c.04.133.156.23.292.244l.742.085" fill="#E5C9A3"/><path d="M42.678 35.16l.35-.246c-.058.243-.12.484-.186.723a25.01 25.01 0 0 1-1.7 4.159c-.14.01-.29.015-.449.015-.492 0-.995-.042-1.552-.093-.966-.089-2.498-.264-2.982-.32a752.962 752.962 0 0 0-3.032-2.401l-.126-.105c-.209-.177-.447-.378-.928-.378-.437 0-1.075.16-2.619.627.802-.6.807-1.374.807-1.374l.038-.326 10.174 1.156a.352.352 0 0 0 .239-.06l1.022-.716.944-.662" fill="#E5C9A3"/><path d="M35.19 13.754c.031.905.009 2.545-.413 4.081a.333.333 0 0 0 0 .176 64.743 64.743 0 0 0-1.61-.148c.603-1.262.734-2.606.763-3.079.462-.329.922-.723 1.26-1.03m-15.35 1.03c.027.473.159 1.814.76 3.075-.537.043-1.073.092-1.608.15a.332.332 0 0 0 0-.174c-.421-1.533-.443-3.175-.414-4.081.338.307.797.701 1.261 1.03" fill="#E9D586"/><path d="M34.544 29.1a.55.55 0 0 0 .37-.943.546.546 0 1 0-.76.79c.104.1.244.155.39.153zm3.367 2.466c-.721-.348-1.512.094-2.953.12-1.072.039-1.971.05-2.03-1.633-.06-1.684.627-3.077 1.699-3.116 1.071-.037 2.049 1.299 2.18 2.98.037.463-.014.8-.13 1.05.998-.118 1.224.559 1.234.6v-.001z" fill="#2A2C30"/><path d="M34.523 28.002a.548.548 0 1 1 .02 1.095.548.548 0 0 1-.02-1.095" fill="#F1FAFC"/><path d="M19.189 29.506a.548.548 0 1 0-.031-1.096.548.548 0 0 0 .03 1.096zm1.656.881c.016 1.685-.876 1.583-1.95 1.593l-.313.006c-.12.003-.236.004-.347.001-1.041-.001-1.706-.048-2.295.27.014-.037.272-.615 1.207-.85-.103-.228-.168-.544-.185-.983-.064-1.683.974-3.063 2.047-3.072 1.071-.01 1.82 1.351 1.836 3.035z" fill="#2A2C30"/><path d="M19.16 28.411a.548.548 0 1 1 .034 1.096.548.548 0 0 1-.034-1.096" fill="#F1FAFC"/><path d="M12.365 19.127l-.125-.235-.005-.617.325-3.67 5.633-1.365.35 4.737c-.272-.37-.681-1.208-.935-2.358-.135-.615-.57-.79-1.072-.79-.437 0-.924.134-1.306.224-.819.195-1.89.468-2.066.897-.34.831-.507 3.002-.507 3.002l-.292.175m29.09 0l-.293-.175s-.166-2.17-.506-3.002c-.176-.429-1.248-.702-2.066-.897-.382-.09-.87-.224-1.307-.224-.501 0-.936.175-1.072.79-.253 1.15-.663 1.988-.936 2.358l.351-4.737 5.634 1.365.276 3.128-.01 1.26-.071.134" fill="#EBDB8B"/><path d="M32.64 18.277l-11.356-.02-.588-1.326-.42-2.271-.926-.736-.022-5.289 1.304-3.855s.214 11.354 2.867 11.354h6.898c2.653 0 2.803-11.359 2.803-11.359l1.726 6.367-1.255 3.581-.063 1.01-.442 1.598-.525.946m11.548 2.028l-.643-.314.643.314m-.643-.314l-2.023-.61.003-.389.104-.196-.094-1.063.02-2.367s.545 3.918 1.99 4.625" fill="#EBDC8C"/><path fill="#EAD687" d="M41.527 18.992l.027-1.259.25 1.063-.278.196"/><path d="M9.578 20.305l.642-.314-.642.314m.642-.314c1.446-.707 1.992-4.625 1.992-4.625l.023 2.909-.046.521.051.096.004.489-2.024.61" fill="#EBDC8C"/><path fill="#EAD687" d="M12.325 18.892l-.136-.096.123-.521.013.617"/><path d="M18.369 18.075l-.024-.062c-.494-1.794-.472-3.676-.428-4.544l-5.122 1.457c-.345 2.242-.184 3.89-.15 4.194.426-.115.853-.222 1.282-.32a42.82 42.82 0 0 1 2.136-.41c.717-.12 1.435-.21 2.154-.298.051-.006.101-.01.152-.017zm2.23-.216c-.6-1.26-.732-2.602-.76-3.075a13.952 13.952 0 0 1-1.26-1.03c-.03.906-.009 2.548.412 4.081a.333.333 0 0 1 0 .173 62.55 62.55 0 0 1 1.609-.149zm14.178-.024c.421-1.536.444-3.176.413-4.081-.338.307-.798.7-1.26 1.03-.03.473-.16 1.817-.763 3.079.537.043 1.073.091 1.61.147a.332.332 0 0 1 0-.175zm6.344 1.286c.035-.302.197-1.95-.147-4.195l-5.124-1.457c.046.868.066 2.75-.426 4.544l-.025.065.15.016c1.441.165 2.875.395 4.293.707.427.099.855.205 1.28.32zm.823.242c.688.225 1.38.463 2.007.83a7.936 7.936 0 0 0-1.03-.314 17.574 17.574 0 0 0-1.05-.23 32.751 32.751 0 0 0-2.121-.332c-.71-.092-1.42-.17-2.134-.23-.714-.061-1.426-.121-2.14-.163-2.859-.176-5.725-.22-8.592-.223-2.868.002-5.734.055-8.592.224-.714.041-1.427.102-2.14.163-.714.06-1.426.136-2.134.23-.71.086-1.418.199-2.122.331-.351.066-.701.143-1.05.23a8.014 8.014 0 0 0-1.03.314c.626-.366 1.318-.606 2.007-.832.058-.019.117-.035.176-.053l-.01-.045c-.013-.079-.268-1.962.176-4.655a.334.334 0 0 1 .24-.268l.729-.208c.158-5.649 2.485-8.306 2.557-8.388-2.078 3.345-2.06 7.312-2.024 8.236l4.527-1.286.01-.003.057-.008.018-.001a.303.303 0 0 1 .075.007l.013.004.056.018.021.013.044.028.013.008.008.008.013.01a12 12 0 0 0 .315.303c-.045-1.492.026-5.77 2.063-9.316-.043.124-1.66 4.85-1.102 10.148.18.145.365.282.556.412.09.062.145.164.146.272.002.018.04 1.706.786 3.143a.43.43 0 0 1 .026.067 83.077 83.077 0 0 1 5.571-.179c1.857.002 3.715.055 5.57.183a.336.336 0 0 1 .027-.071c.745-1.437.784-3.125.784-3.143a.34.34 0 0 1 .148-.272c.19-.13.375-.267.555-.412.558-5.297-1.058-10.024-1.101-10.148 2.035 3.546 2.108 7.824 2.063 9.316.106-.1.211-.2.315-.302l.013-.011.008-.008.012-.009.045-.029.02-.01.059-.02.012-.003a.291.291 0 0 1 .074-.007l.017.001.058.008.01.003L40.1 13.98c.037-.924.055-4.891-2.023-8.236.072.082 2.399 2.739 2.556 8.388l.73.208c.125.035.218.14.24.268.443 2.693.187 4.576.176 4.655l-.01.046c.06.017.117.035.176.054z" fill="#2A2C30"/><path d="M31.378 8.272V5.828h-8.795v2.444h1.202V7.03h2.488v7.546h-1.024v1.4h3.462v-1.4h-1.024V7.03h2.488v1.242h1.203zm.905-3.348v4.25H29.27V7.934h-.68v5.738h1.026v3.208h-5.27v-3.208h1.022V7.933h-.677v1.242h-3.012V4.924h10.604z" fill="#2A2C30"/><path fill="#CD2445" d="M31.378 5.827v2.445h-1.203V7.03h-2.488v7.547h1.024v1.4h-3.462v-1.4h1.024V7.03h-2.488v1.242h-1.202V5.827h8.795"/><path d="M7.664 23.437c.44-.1 1.033-.226 1.76-.367-.531.363-1.05.746-1.553 1.148l-.207-.78" fill="#5D6762"/><path d="M23.748 35.088s.123.79-.983 1.128c-1.106.338-8.11 2.426-8.91 2.313-.798-.113-2.826-1.467-2.826-1.467l-.491-1.748 3 1.87 10.21-2.096m6.275-.153s-.088.794 1.031 1.085c1.12.29 8.209 2.07 9.002 1.923.793-.147 2.76-1.588 2.76-1.588l.415-1.769-2.758 1.645-10.45-1.296" fill="#C4AF90"/><path d="M7.094 33.634s.97 1.94 2.538 1.269l1.12.41-.112.822-2.351.299-.635-.374-.56-2.426M46.83 33.1s-1.586 2.026-3.154 1.354l-.504.325.112.821 2.352.3.634-.374.56-2.426M22.292 48.352s5.75 2.9 12.261-1.045l-2.09-.143s-4.563 1.806-8.175.808l-1.996.38" fill="#C4AF90"/><path d="M9.425 23.07c-.59.113-1.176.236-1.761.367l.207.781a25.942 25.942 0 0 1 1.554-1.148zm.952 12.824c-.054-.174-.106-.349-.155-.525l-1.289-.902a.347.347 0 0 1-.146-.242l-.628-5.105c-.466.25-1.004.555-1.147.676-.124.102-.219.364-.084 1.58.167 1.501.927 4.328 1.335 4.74.492.086 1.58-.065 2.114-.222zm7.703-13.532c.955-.268 1.94-.502 2.95-.698-1.448.053-2.897.12-4.343.201-.84.047-1.677.104-2.513.167a38.648 38.648 0 0 0-1.605.151c-1.09.653-5.275 3.28-8.147 6.714 2.79-1.94 7.654-4.855 13.658-6.535zm-.54 2.484c.813-.805 1.65-1.47 2.39-1.99-2.85.663-5.474 1.634-7.773 2.692a90.123 90.123 0 0 1 5.384-.702zm10.94-3.282c-.576-.009-1.154-.014-1.73-.015h-.002c-.846 0-1.694.01-2.544.027l-1.565.742-.022.012c-.235.114-2.29 1.151-4.224 3.001 1.733-.911 4.28-2.102 7.279-3.025a36.001 36.001 0 0 1 2.809-.742zm-.952 4.691c.456-.275.894-.59 1.31-.927a93.942 93.942 0 0 0-8.856.247c-2.149 1.051-3.464 1.916-3.494 1.938l-2.065 1.377 1.418-2.035c.231-.332.477-.654.738-.963-2.38.266-4.363.581-5.845.854l.759 6.15 2.61 1.829 8.285-1.843 1.551-5.11a.347.347 0 0 1 .236-.232c.047-.013.876-.25 1.831-.366l1.522-.919zm.837 19.634c.264-.021.529-.055.795-.095a34.66 34.66 0 0 1-.89-.963c-.158.362-.318.723-.48 1.084h.06c.165 0 .345-.018.515-.026zm4.345 1.862a4.654 4.654 0 0 1-2.972-1.367 28.295 28.295 0 0 0-.126-.128c-.399.08-.803.14-1.218.176-.175.006-.34.022-.522.022l-.27.002-.104-.002c-1.097 1.632-3.535 1.95-3.647 1.965a4.19 4.19 0 0 0-.297.046c1.359.372 2.746.534 4.113.442a16.416 16.416 0 0 0 5.043-1.155zm-.896-25.489c.094-.117.182-.231.26-.334-.809.082-1.614.199-2.414.351-2.7.505-5.193 1.346-7.268 2.207a95.695 95.695 0 0 1 7.477-.07 21.675 21.675 0 0 0 1.945-2.154zm7.46-.231l-.008-.003c-.817-.062-1.635-.116-2.453-.163-1.138-.064-2.276-.119-3.413-.166-.066.098-.2.292-.393.555-.619.838-1.847 2.375-3.421 3.678 2.228-.4 6.094-1.388 9.439-3.722l.249-.18zm3.754 12.882l-.35.245-.944.662-1.023.717a.354.354 0 0 1-.238.06L30.299 35.44l-.74-.084a.347.347 0 0 1-.293-.244l-1.592-5.243a5.308 5.308 0 0 0-.702-.054c-.202 0-.437.018-.703.054l-1.546 5.092a.345.345 0 0 1-.256.236l-10.845 2.415a.343.343 0 0 1-.275-.056l-.395-.274-1.18-.825v-.003l-.477-.333c.034.107.073.212.11.316l-.001.002c.092.272 1.006 2.902 2.863 5.475 1.424-.421 2.844-.857 4.259-1.307 1.12-1.727 2.716-3.44 3.85-3.499.2-.01.4-.015.6-.015.554 0 1.084.04 1.575.098-.417-.379-.502-.823-.563-1.02 0 0 1.446 1.131 3.288.895 1.842-.238 2.986-1.3 2.986-1.3s-.005.775-.808 1.375c1.544-.467 2.182-.627 2.62-.627.481 0 .72.201.927.379l.127.105c1.012.797 2.023 1.598 3.031 2.4.484.057 2.016.231 2.982.32.557.05 1.06.093 1.553.093.159 0 .307-.006.448-.015a25.017 25.017 0 0 0 1.7-4.159c.065-.24.129-.48.186-.724zm-.575-2.957l.747-5.23a88.15 88.15 0 0 0-8.963-1.138c-3.408 1.175-6.262 1.525-6.434 1.537l-.199.014a12.62 12.62 0 0 1 2.162.4c.113.035.201.12.236.234l1.545 5.085 8.274.94 2.632-1.842zm2.015 1.1l.845-5.91c-.476-.104-.953-.201-1.431-.293l-.764 5.35a.353.353 0 0 1-.143.235L40.11 34.44a.348.348 0 0 1-.236.06l-8.632-.98a.347.347 0 0 1-.294-.243l-1.555-5.119c-.416-.108-1.485-.357-2.42-.357-.94 0-2.009.25-2.425.357l-1.555 5.119a.346.346 0 0 1-.256.236l-8.632 1.92a.34.34 0 0 1-.274-.054l-2.864-2.004a.349.349 0 0 1-.146-.242l-.771-6.26c-.29.056-.58.115-.87.175-.182.102-.364.202-.542.303l.82 6.634 4.16 2.915 10.5-2.335 1.55-5.106a.346.346 0 0 1 .276-.244 6.595 6.595 0 0 1 1.028-.095c.287 0 .633.032 1.024.095.132.02.24.115.277.244l1.59 5.232 10.557 1.2 4.048-2.835zm1.168-6.8l.744-2.819a72.572 72.572 0 0 0-5.768-1.036c-1.381.993-2.892 1.787-4.377 2.42 4.544.442 7.882 1.1 9.401 1.435zm1.289 4.407c.114-1.262.014-1.533-.114-1.637-.128-.107-.56-.352-.982-.581l-.694 4.86a.347.347 0 0 1-.145.235l-.993.694c-.079.398-.107.586-.204.975.567.132 1.498.234 1.941.148.403-.436 1.053-3.148 1.19-4.694zM49.92 18.67a13.48 13.48 0 0 1-.065 2.18 13.848 13.848 0 0 1-.404 2.15c-.1.354-.216.704-.35 1.047a9.562 9.562 0 0 1-.223.517c-.04.085-.082.17-.13.256l-.071.128a2.41 2.41 0 0 1-.087.143l-.073.115-.116.059c-.11.056-.222.11-.335.163l-.324.146c-.217.093-.435.18-.654.266-.139.054-.277.11-.415.168l-.36 1.37-.32-.079-.02.144c.398.208 1.18.63 1.446.85.537.443.574 1.145.455 2.457-.06.673-.284 1.984-.594 3.187-.535 2.072-.82 2.316-1.187 2.41a3.221 3.221 0 0 1-.75.095c-.567 0-1.338.016-1.856-.11-.133.472-.513 1.702-1.265 3.237.037-.018.075-.034.108-.052.928-.487 2.712-1.264 2.787-1.298l1.41-.612-.722 1.357c-.017.03-1.564 2.94-2.512 4.84-.94 1.882-2.705 2.292-3.761 2.534-.16.038-.31.073-.433.106-.758.214-2.292.58-3.645.905l-.05.01c-.866.537-1.782.99-2.735 1.352-3.637 1.377-7.471 1.3-10.947.023-.565.072-1.307.161-2.296.273a11.28 11.28 0 0 1-1.244.073c-3.312 0-5.068-1.682-6.348-3.329-1.372-1.763-3.05-4.38-3.12-4.49l-.974-1.517 1.644.739c.788.354 3.128 1.437 3.797 1.748l.16-.047a20.127 20.127 0 0 1-2.67-5.401 8.01 8.01 0 0 1-2.05.293c-.239 0-.454-.018-.62-.057-.366-.084-.785-.438-1.355-2.446-.331-1.165-.578-2.438-.65-3.093-.142-1.278-.117-1.963.415-2.406.32-.267 1.4-.834 1.624-.95l-.048-.395c-3.433 2.017-5.49 3.8-5.532 3.837L0 33.72l1.75-2.758a26.879 26.879 0 0 1 4.454-5.315l-.178-.073-.324-.146a8.848 8.848 0 0 1-.335-.163l-.115-.06-.074-.113c-.04-.063-.059-.097-.086-.144l-.073-.128c-.045-.086-.089-.17-.129-.255a7.685 7.685 0 0 1-.222-.518A11.178 11.178 0 0 1 4.318 23a13.67 13.67 0 0 1-.405-2.148 13.649 13.649 0 0 1-.065-2.18 12.917 12.917 0 0 1 .194-1.63c.038-.183.074-.354.13-.554l.038-.141.101-.08c.573-.45 1.19-.789 1.819-1.09.515-.24 1.041-.458 1.576-.653 1.484-4.119 4.035-7.77 7.388-10.315 3.467-2.63 7.544-4.021 11.79-4.021 4.246 0 8.323 1.39 11.79 4.021 3.353 2.545 5.905 6.197 7.387 10.314.533.196 1.06.41 1.578.654.627.301 1.245.641 1.818 1.09l.1.08.04.14a8.227 8.227 0 0 1 .218 1.096c.05.362.087.725.105 1.088zm-39.808-4.574c-.628.254-1.252.515-1.863.802-.611.28-1.212.579-1.786.914-.53.305-1.038.64-1.487 1.017a10.055 10.055 0 0 0-.104.857c-.028.337-.043.675-.045 1.014a14.906 14.906 0 0 0 .523 4.01c.09.324.192.643.31.95a6.876 6.876 0 0 0 .294.67l.043.082.15.075.302.143c.168.077.4.187.59.273l.032-.029-.557-2.125c.117-.032 1.177-.306 3.004-.654a9.139 9.139 0 0 1-1.666-.485 5.705 5.705 0 0 1-.577-.28 1.958 1.958 0 0 1-.508-.385c2.006.655 6.152.357 9.837-.022 3.371-.348 6.749-.573 10.145-.58 3.395.007 6.776.232 10.144.58 3.688.38 7.834.677 9.84.022-.141.16-.323.28-.508.386-.185.105-.38.195-.577.28a9.22 9.22 0 0 1-1.224.39c-.06.014-.123.028-.185.04 2.002.372 3.168.674 3.292.708l-.533 2.024c.107-.048.215-.094.321-.143l.302-.143.15-.075.042-.082a7.988 7.988 0 0 0 .296-.67c.118-.31.221-.628.309-.95.183-.644.307-1.312.398-1.985a14.762 14.762 0 0 0 .082-3.038 12.877 12.877 0 0 0-.054-.502 7.457 7.457 0 0 0-.053-.355 10.253 10.253 0 0 0-1.486-1.018 20.09 20.09 0 0 0-1.788-.914 35.319 35.319 0 0 0-1.863-.801c-.314-.127-.63-.251-.949-.369-.316-.122-.637-.238-.957-.355.673.11 1.34.264 2 .434.431.111.86.237 1.284.37C42.008 6.272 34.778 1.125 26.884 1.125c-7.896 0-15.125 5.147-18.149 13.052.425-.133.853-.259 1.282-.37.662-.17 1.33-.323 2.003-.434-.322.116-.641.232-.96.355-.316.118-.632.242-.948.368zm18.01 28.914l.397.474a35.61 35.61 0 0 0 1.974 2.135c.72.713 1.588 1.074 2.583 1.074.34 0 .697-.044 1.057-.131l1.07-.257c1.345-.322 2.868-.687 3.606-.894.146-.04.309-.078.48-.117.983-.227 2.33-.54 3.043-1.97.537-1.073 1.26-2.466 1.797-3.486-.465.214-.952.447-1.299.63-.534.28-1.233.416-2.137.416-.537 0-1.065-.046-1.649-.098-1.167-.107-3.142-.34-3.163-.342l-.15-.017-.12-.096c-.018-.013-1.749-1.392-3.148-2.492l-.155-.128c-.147-.125-.147-.125-.235-.125-.449 0-1.753.404-4.61 1.29l-.175.055-.172-.065c-.02-.006-1.894-.701-4.14-.701-.184 0-.367.005-.546.014-.225.011-1.488.611-3.102 3.166l-.105.164-.185.06a198.502 198.502 0 0 1-5.753 1.748l-.192.055-.18-.084c-.02-.008-1.173-.543-2.27-1.048.598.885 1.363 1.988 2.037 2.853 1.176 1.514 2.659 2.914 5.501 2.914.357 0 .736-.022 1.125-.066 2.891-.327 3.636-.459 4.037-.528.135-.023.243-.043.38-.06.022-.003 2.39-.309 3.054-1.8.685-1.53.823-1.896.828-1.91l.242-.644s.03-.168.08-.22v.002l.005.004c.076.055.19.225.19.225z" fill="#2A2C30"/></g></svg>