<svg width="50" height="41" xmlns="http://www.w3.org/2000/svg"><defs><linearGradient x1="0%" y1="50%" y2="50%" id="a"><stop stop-color="#2A3B8F" offset="0%"/><stop stop-color="#29ABE2" offset="100%"/></linearGradient><linearGradient x1="100%" y1="50%" x2="0%" y2="50%" id="b"><stop stop-color="#B4D44E" offset="0%"/><stop stop-color="#E7F716" offset="100%"/></linearGradient></defs><g><path fill="#166DA5" d="M49.876 20.466l-5.404 9.1-7.578-9.224 7.578-8.976z"/><path fill="#8FDB69" d="M43.882 31.118l-8.23-9.845-4.938 8.261 7.671 11.211z"/><path fill="#166DA5" d="M43.789 9.752l-8.137 9.875-4.938-8.26L38.385.28z"/><path fill="url(#a)" opacity=".95" d="M18.975 9.752H43.79L38.323.28H24.441zM35.652 19.658H49.38l-4.938-8.323H30.683"/><path fill="url(#b)" opacity=".95" d="M43.882 31.15H18.944l5.466 9.471h13.975z"/><path fill="#010101" d="M24.41 40.621L12.733 20.435 24.565.248H11.77L.124 20.435 11.77 40.62z"/><path fill="url(#b)" opacity=".95" d="M35.652 21.242H49.38l-4.938 8.323H30.683"/></g></svg>