<?xml version="1.0" encoding="UTF-8"?>
<svg width="59px" height="47px" viewBox="0 0 59 47" version="1.1" xmlns="http://www.w3.org/2000/svg" xmlns:xlink="http://www.w3.org/1999/xlink">
    <!-- Generator: Sketch 50.2 (55047) - http://www.bohemiancoding.com/sketch -->
    <title>SVG</title>
    <desc>Created with Sketch.</desc>
    <defs></defs>
    <g id="Page-1" stroke="none" stroke-width="1" fill="none" fill-rule="evenodd">
        <g id="Artboard" transform="translate(-900.000000, -560.000000)" fill-rule="nonzero">
            <g id="SVG" transform="translate(898.000000, 559.000000)">
                <g id="Group" transform="translate(33.236220, 24.924918) rotate(-20.000000) translate(-33.236220, -24.924918) translate(3.428528, 10.021071)">
                    <polygon id="Rectangle-74" fill="#F89920" points="3.46153846 14.8076923 0 6.34615385 20 6.34615385 20 14.8076923"></polygon>
                    <polygon id="Rectangle-74-Copy" fill="#FFBE22" transform="translate(10.000000, 18.990385) scale(-1, 1) rotate(-180.000000) translate(-10.000000, -18.990385) " points="3.46153846 23.2692308 0 14.7115385 20 14.7115385 20 23.2692308"></polygon>
                    <path d="M58.8461538,14.9038462 C58.75,23.0769231 47.1153846,29.7115385 32.8846154,29.7115385 C18.5576923,29.7115385 6.92307692,22.9807692 6.92307692,14.9038462 L58.8461538,14.9038462 Z" id="Path" fill="#F0670A"></path>
                    <path d="M58.8461538,14.9038462 C58.75,6.63461538 47.1153846,0 32.8846154,0 C18.4615385,0 6.92307692,6.73076923 6.73076923,14.9038462 L58.75,14.9038462 L58.8461538,14.9038462 Z" id="Path" fill="#FFD00E"></path>
                    <path d="M58.8461538,14.9038462 C58.6538462,20.1923077 47.1153846,24.7115385 32.8846154,24.7115385 C18.5576923,24.7115385 7.01923077,20.2884615 6.92307692,14.9038462 L58.8461538,14.9038462 Z" id="Path" fill="#F89920"></path>
                    <path d="M58.8461538,14.9038462 C58.6538462,9.42307692 47.1153846,5 32.8846154,5 C18.5576923,5 6.92307692,9.42307692 6.92307692,14.9038462 L58.8461538,14.9038462 Z" id="Path" fill="#FFBE22"></path>
                </g>
                <path d="M37.9807692,7.88461538 C36.5384615,3.46153846 35.1923077,1.05769231 33.5576923,1.15384615 C30.3846154,1.15384615 29.3269231,11.3461538 30.2884615,24.2307692 C31.3461538,37.4038462 34.1346154,47.3076923 37.5,47.1153846 C39.4230769,47.1153846 40.5769231,43.8461538 40.9615385,38.2692308 L40.9615385,38.1730769 C40.9615385,38.1730769 40.9615385,37.8846154 40.7692308,37.8846154 L40.3846154,37.8846154 C40,43.3653846 38.9423077,46.5384615 37.5,46.5384615 C34.6153846,46.5384615 32.0192308,36.8269231 30.9615385,24.2307692 C30,11.8269231 31.0576923,1.82692308 33.5576923,1.73076923 C34.8076923,1.73076923 36.1538462,3.94230769 37.3076923,8.07692308 L37.9807692,7.88461538 Z" id="Shape" fill="#F0670A"></path>
                <path d="M22.1153846,4.80769231 C19.4230769,6.44230769 23.5576923,15.7692308 30.9615385,26.4423077 C38.3653846,37.3076923 45.6730769,44.4230769 48.5576923,42.7884615 C50.0961538,41.7307692 49.7115385,38.75 47.5961538,34.1346154 C47.5446252,34.031558 47.4420302,33.9638193 47.3270156,33.9569157 C47.2120009,33.9500122 47.10204,34.0049927 47.038554,34.1011465 C46.9750681,34.1973004 46.9677021,34.3200195 47.0192308,34.4230769 C48.9423077,38.6538462 49.3269231,41.4423077 48.1730769,42.1153846 C45.7692308,43.5576923 38.5576923,36.5384615 31.4423077,26.0576923 C24.4230769,15.8653846 20.2884615,6.73076923 22.5,5.28846154 C23.5576923,4.61538462 26.3461538,6.25 29.9038462,10 L30.1923077,10.2884615 C30.2884615,10.2884615 30.1923077,10.0961538 30.3846154,10 L30.3846154,9.51923077 C26.5384615,5.67307692 23.6538462,3.75 22.1153846,4.71153846 L22.1153846,4.80769231 Z" id="Shape" fill="#F0670A"></path>
            </g>
        </g>
    </g>
</svg>